<svg width="41" height="36" viewBox="0 0 41 36" fill="none" xmlns="http://www.w3.org/2000/svg">
<path d="M12.2656 6.70312C13.1953 5.625 14.3711 5.08594 15.793 5.08594C18.4961 5.08594 19.8672 6.62891 19.9062 9.71484V18H17.0586V9.82031C17.0586 8.94531 16.8672 8.32812 16.4844 7.96875C16.1094 7.60156 15.5547 7.41797 14.8203 7.41797C13.6797 7.41797 12.8281 7.92578 12.2656 8.94141V18H9.41797V0H12.2656V6.70312Z" fill="#EEEEEE"/>
<path d="M29.4336 7.92188C29.0586 7.85938 28.6719 7.82812 28.2734 7.82812C26.9688 7.82812 26.0898 8.32812 25.6367 9.32812V18H22.7891V5.32031H25.5078L25.5781 6.73828C26.2656 5.63672 27.2188 5.08594 28.4375 5.08594C28.8438 5.08594 29.1797 5.14062 29.4453 5.25L29.4336 7.92188Z" fill="#EEEEEE"/>
<path d="M33.1016 5.32031L33.1836 6.78516C34.1211 5.65234 35.3516 5.08594 36.875 5.08594C39.5156 5.08594 40.8594 6.59766 40.9062 9.62109L41 36H38.0586V9.78516C38.0586 8.98047 37.8828 8.38672 37.5312 8.00391C37.1875 7.61328 36.6211 7.41797 35.832 7.41797C34.6836 7.41797 33.8281 7.9375 33.2656 8.97656V18H30.418V5.32031H33.1016Z" fill="#EEEEEE"/>
<path d="M4.81536 1.71224V0H2.03595V1.71224H0V2.88411H2.03595V36H4.81536V2.88411H7V1.71224H4.81536Z" fill="#EEEEEE"/>
<path d="M12.2656 24.7031C13.1953 23.625 14.3711 23.0859 15.793 23.0859C18.4961 23.0859 19.8672 24.6289 19.9062 27.7148V36H17.0586V27.8203C17.0586 26.9453 16.8672 26.3281 16.4844 25.9688C16.1094 25.6016 15.5547 25.418 14.8203 25.418C13.6797 25.418 12.8281 25.9258 12.2656 26.9414V36H9.41797V18H12.2656V24.7031Z" fill="#EEEEEE"/>
<path d="M25.6357 24.7031C26.5654 23.625 27.7412 23.0859 29.1631 23.0859C31.8662 23.0859 33.2373 24.6289 33.2764 27.7148V36H30.4287V27.8203C30.4287 26.9453 30.2373 26.3281 29.8545 25.9688C29.4795 25.6016 28.9248 25.418 28.1904 25.418C27.0498 25.418 26.1982 25.9258 25.6357 26.9414V36H22.7881L22.7891 18H25.6367L25.6357 24.7031Z" fill="#EEEEEE"/>
</svg>
